<?xml version="1.0" encoding="UTF-8"?><svg id="Layer_2" xmlns="http://www.w3.org/2000/svg" width="110" height="110" viewBox="0 0 110 110"><g id="Layer_1-2"><path fill="#743e3b" d="M97.2444,19.8267l11.2595-11.2593-7.0713-7.0713-11.2594,11.2594C80.6317,4.7976,68.367,0,55,0,24.6729,0,0,24.6729,0,55c0,13.367,4.7976,25.6317,12.7555,35.1732L1.4961,101.4326l7.0713,7.0703,11.2589-11.2588c9.5417,7.9581,21.8065,12.7559,35.1737,12.7559,30.3271,0,55-24.6729,55-55,0-13.367-4.7977-25.6317-12.7556-35.1733ZM10,55C10,30.187,30.187,10,55,10c10.6087,0,20.3647,3.6987,28.066,9.8627L19.8627,83.066c-6.1639-7.7013-9.8627-17.4572-9.8627-28.066Zm45,45c-10.6089,0-20.3651-3.6988-28.0665-9.863L90.1371,26.934c6.1641,7.7014,9.8629,17.4573,9.8629,28.066,0,24.8135-20.187,45-45,45Z"/></g></svg>