<?xml version="1.0" encoding="UTF-8"?><svg id="Layer_2" xmlns="http://www.w3.org/2000/svg" width="82.0004" height="120.4771" viewBox="0 0 82.0004 120.4771"><g id="Layer_1-2"><path fill="#743e3b" d="M61.2754,25.3374l-9.0635-5.9131,1.3711,10.7344c3.5469,27.7627-1.9199,30.9766-8.251,34.6982l-.0586,.0342c-.8896,.3154-3.7607,.2393-5.3652-.2598-1.7666-.5483-2.9219-1.6113-3.748-3.4463-4.3623-9.6963,3.4482-34.2002,9.3965-47.3677L51.7969,0l-13.2354,7.3926C36.9873,8.272,0,29.3965,0,69.9263c0,30.4023,37.2402,48.7373,38.8252,49.502l2.1709,1.0488,2.1719-1.0449c1.5918-.7666,38.9727-19.1055,38.832-49.5293-.1436-30.7847-19.8848-44.0171-20.7246-44.5654Zm-20.2715,83.9307c-7.3818-4.1172-31.0039-18.8936-31.0039-39.3418,0-19.6553,10.6982-34.29,19.9922-43.2949-3.9717,12.4028-7.46,28.6289-2.9541,38.6514,1.9912,4.4287,5.416,7.5059,9.9043,8.8994,2.083,.6455,8.998,1.9199,13.3184-.623l.1396-.0811c8.1807-4.8096,14.5537-10.4097,14.2402-30.1084,3.7607,5.8628,7.3037,14.564,7.3594,26.5801,.0947,20.4385-23.6045,35.2109-30.9961,39.3184Z"/></g></svg>