<?xml version="1.0" encoding="UTF-8"?><svg id="Layer_2" xmlns="http://www.w3.org/2000/svg" width="160" height="110" viewBox="0 0 160 110"><g id="Layer_1-2"><path fill="#743e3b" d="M105,0c-8.9997,0-17.4932,2.1867-25,6.0352C72.4932,2.1867,63.9997,0,55,0,24.6729,0,0,24.6729,0,55s24.6729,55,55,55c8.9997,0,17.4932-2.1867,25-6.0352,7.5068,3.8485,16.0003,6.0352,25,6.0352,30.3271,0,55-24.6729,55-55S135.3271,0,105,0Zm0,100c-5.2662,0-10.3203-.9174-15.0209-2.5872-1.7939-.6372-3.5332-1.3878-5.2148-2.2383-1.6471-.833-3.2406-1.7567-4.7643-2.7786-12.0507-8.0825-20-21.8269-20-37.3959s7.9493-29.3131,20-37.3958c1.5237-1.022,3.1172-1.9456,4.7643-2.7787,1.6816-.8505,3.4209-1.6011,5.2148-2.2383,4.7007-1.6698,9.7546-2.5873,15.0209-2.5873,24.8135,0,45,20.187,45,45s-20.1865,45-45,45Z"/></g></svg>